<svg xmlns="http://www.w3.org/2000/svg" style="display: none;"><symbol id="nature" viewBox="0 0 160.624 160.624"><title>nature</title><path style="fill:#010002;" d="M80.241,160.624c-17.613,0-35.901-8.65-46.594-22.038c-8.153-10.21-11.175-22.291-8.517-34.008 C31.412,76.874,72.407,4.96,74.144,1.916C74.805,0.758,76.023,0.037,77.352,0c1.344-0.015,2.584,0.631,3.297,1.752 c1.945,3.03,47.633,74.535,54.687,102.744c2.866,11.465,0.074,23.375-7.856,33.54C116.766,151.758,98.225,160.624,80.241,160.624z M77.634,11.22c-9.861,17.65-40.03,72.738-45.094,95.036c-2.74,12.073,2.324,21.667,7.047,27.585 c9.304,11.65,25.261,19.179,40.653,19.179c15.482,0,32.062-7.9,41.247-19.67c4.567-5.851,9.4-15.289,6.467-27.013l0,0 C122.283,83.639,88.535,28.617,77.634,11.22z"/></symbol><symbol id="ribbon" viewBox="0 0 48.065 48.065"><title>ribbon</title><path d="M40.908,0H7.158c-0.553,0-1,0.448-1,1v46.065c0,0.401,0.239,0.763,0.608,0.92c0.369,0.157,0.797,0.078,1.085-0.2 l16.182-15.582l16.182,15.582c0.189,0.183,0.439,0.28,0.693,0.28c0.132,0,0.266-0.026,0.392-0.08c0.369-0.157,0.608-0.52,0.608-0.92 V1C41.908,0.448,41.46,0,40.908,0z M39.908,44.714L24.726,30.095c-0.193-0.187-0.443-0.28-0.693-0.28s-0.5,0.093-0.693,0.28 L8.158,44.714V2h31.75V44.714z"/></symbol><symbol id="tools" viewBox="0 0 512 512"><title>tools</title><g> <g> <path d="M158.351,0v512h195.299V0H158.351z M200.577,496.165h-26.392V15.835h26.392V496.165z M337.814,68.619h-44.866v15.835 h44.866v47.505h-65.979v15.835h65.979v36.948h-44.866v15.835h44.866v47.505h-65.979v15.835h65.979v36.948h-44.866v15.835h44.866 v47.505h-65.979v15.835h65.979v47.505h-44.866v15.835h44.866v52.784H216.412V15.835h121.402V68.619z"/> </g> </g><g> <g> <rect x="234.887" y="36.948" width="26.392" height="15.835"/> </g> </g></symbol><symbol id="commerce" viewBox="0 0 33 33"><title>commerce</title><g> <path d="M27.049,30.134H5.951c-0.99,0-1.81-0.743-1.908-1.728L2.659,14.537c-0.014-0.141,0.032-0.281,0.127-0.385 c0.095-0.105,0.229-0.165,0.371-0.165h26.688c0.141,0,0.276,0.06,0.371,0.165c0.095,0.104,0.141,0.245,0.127,0.385l-1.383,13.869 C28.86,29.391,28.039,30.134,27.049,30.134z M3.708,14.988l1.329,13.319c0.047,0.472,0.439,0.827,0.913,0.827h21.099 c0.474,0,0.867-0.355,0.914-0.827l1.329-13.319H3.708z"/> <g> <g> <path d="M7.604,9.106c-0.143,0-0.285-0.061-0.383-0.179C7.042,8.716,7.07,8.4,7.282,8.223l6.246-5.24 c0.213-0.177,0.528-0.15,0.704,0.062c0.178,0.211,0.15,0.527-0.062,0.704l-6.246,5.24C7.831,9.067,7.717,9.106,7.604,9.106z"/> </g> <g> <path d="M25.397,9.106c-0.113,0-0.227-0.039-0.321-0.117l-6.247-5.24c-0.211-0.178-0.239-0.493-0.062-0.705 c0.179-0.211,0.493-0.239,0.705-0.062l6.247,5.24c0.211,0.178,0.239,0.493,0.062,0.705C25.682,9.045,25.54,9.106,25.397,9.106z"/> </g> </g> <path d="M31.275,14.988H1.725C0.774,14.988,0,14.214,0,13.263v-3.198c0-0.951,0.774-1.725,1.725-1.725h29.55 c0.951,0,1.725,0.774,1.725,1.725v3.198C33,14.214,32.227,14.988,31.275,14.988z M1.725,9.339C1.325,9.339,1,9.664,1,10.064v3.198 c0,0.4,0.325,0.725,0.725,0.725h29.55c0.399,0,0.725-0.325,0.725-0.725v-3.198c0-0.4-0.325-0.725-0.725-0.725H1.725z"/> </g><g> <path d="M9.255,26.048c-0.276,0-0.5-0.224-0.5-0.5v-7.25c0-0.276,0.224-0.5,0.5-0.5s0.5,0.224,0.5,0.5v7.25 C9.755,25.825,9.532,26.048,9.255,26.048z"/> <path d="M14.085,26.048c-0.276,0-0.5-0.224-0.5-0.5v-7.25c0-0.276,0.224-0.5,0.5-0.5s0.5,0.224,0.5,0.5v7.25 C14.585,25.825,14.362,26.048,14.085,26.048z"/> <path d="M18.915,26.048c-0.276,0-0.5-0.224-0.5-0.5v-7.25c0-0.276,0.224-0.5,0.5-0.5s0.5,0.224,0.5,0.5v7.25 C19.415,25.825,19.191,26.048,18.915,26.048z"/> <path d="M23.745,26.048c-0.276,0-0.5-0.224-0.5-0.5v-7.25c0-0.276,0.224-0.5,0.5-0.5s0.5,0.224,0.5,0.5v7.25 C24.245,25.825,24.021,26.048,23.745,26.048z"/> </g></symbol><symbol id="ice-crystal" viewBox="0 0 463.229 463.229"><title>ice-crystal</title><path d="M418.193,245.165l-84.252,22.564l-32.476-18.734v-35.156l32.105-18.436l84.621,22.674c1.701,0.454,3.41,0.678,5.104,0.678 c8.692,0,16.646-5.805,18.995-14.598c2.815-10.508-3.415-21.307-13.922-24.119l-46.391-12.43l42.766-24.553 c9.426-5.414,12.688-17.449,7.273-26.879c-5.433-9.43-17.444-12.697-26.874-7.27l-42.854,24.611l12.427-46.407 c2.812-10.505-3.409-21.306-13.921-24.118c-10.442-2.739-21.285,3.422-24.101,13.92l-22.58,84.256l-32.306,18.553l-30.625-17.707 V124.86l61.931-61.93c7.688-7.692,7.688-20.151,0-27.844c-7.69-7.691-20.146-7.691-27.842,0l-34.089,34.088V19.688 C251.183,8.816,242.365,0,231.492,0c-10.871,0-19.688,8.815-19.688,19.688V68.93l-33.841-33.844c-7.691-7.691-20.15-7.691-27.843,0 c-7.691,7.692-7.691,20.151,0,27.844l61.684,61.683v37.544l-30.393,17.534l-32.306-18.536l-22.564-84.242 c-2.811-10.498-13.603-16.676-24.1-13.92C91.935,65.805,85.7,76.606,88.515,87.111l12.426,46.399l-42.852-24.604 c-9.447-5.428-21.472-2.168-26.878,7.275c-5.411,9.432-2.148,21.459,7.281,26.873l42.762,24.553l-46.392,12.43 c-10.507,2.812-16.74,13.611-13.926,24.119c2.355,8.793,10.307,14.598,19,14.598c1.693,0,3.403-0.224,5.109-0.678l84.632-22.682 l32.069,18.412l0.033,35.188l-32.486,18.768l-84.248-22.598c-10.433-2.738-21.291,3.43-24.109,13.924 c-2.814,10.504,3.419,21.306,13.926,24.103l46.222,12.397l-42.641,24.616c-9.413,5.441-12.643,17.472-7.199,26.886 c3.647,6.336,10.263,9.844,17.06,9.844c3.337,0,6.724-0.83,9.827-2.646l42.857-24.732l-12.473,46.577 c-2.815,10.522,3.42,21.29,13.926,24.119c1.701,0.461,3.41,0.679,5.104,0.679c8.689,0,16.641-5.814,18.996-14.613l22.676-84.605 l32.252-18.609l30.335,17.504v38.025l-61.684,61.685c-7.691,7.69-7.691,20.147,0,27.842c3.846,3.846,8.875,5.752,13.921,5.752 c5.029,0,10.076-1.906,13.922-5.752l33.841-33.842v49.225c0,10.892,8.817,19.689,19.688,19.689 c10.873,0,19.691-8.799,19.691-19.689v-49.471l34.089,34.088c3.845,3.846,8.874,5.752,13.921,5.752s10.076-1.906,13.921-5.752 c7.688-7.693,7.688-20.15,0-27.842l-61.931-61.931V300.76l30.595-17.658l32.243,18.609l22.676,84.605 c2.352,8.799,10.304,14.613,18.992,14.613c1.688,0,3.402-0.218,5.107-0.679c10.512-2.829,16.732-13.597,13.921-24.119 l-12.487-46.577l42.873,24.732c3.104,1.814,6.49,2.646,9.828,2.646c6.797,0,13.411-3.508,17.059-9.844 c5.443-9.414,2.215-21.443-7.199-26.886L382.15,295.59l46.221-12.398c10.507-2.797,16.737-13.6,13.922-24.102 C439.495,248.594,428.682,242.413,418.193,245.165z M262.087,248.995l-30.472,17.599l-30.45-17.6l-0.034-35.219l30.484-17.587 l30.472,17.613V248.995z"/></symbol><symbol id="clock" viewBox="0 0 60 60"><title>clock</title><path d="M30,0C13.458,0,0,13.458,0,30s13.458,30,30,30s30-13.458,30-30S46.542,0,30,0z M30,58C14.561,58,2,45.439,2,30 S14.561,2,30,2s28,12.561,28,28S45.439,58,30,58z"/><path d="M31,26.021V15.879c0-0.553-0.448-1-1-1s-1,0.447-1,1v10.142c-1.399,0.364-2.494,1.459-2.858,2.858H19c-0.552,0-1,0.447-1,1 s0.448,1,1,1h7.142c0.447,1.72,2,3,3.858,3c2.206,0,4-1.794,4-4C34,28.02,32.72,26.468,31,26.021z M30,31.879c-1.103,0-2-0.897-2-2 s0.897-2,2-2s2,0.897,2,2S31.103,31.879,30,31.879z"/><path d="M30,9.879c0.552,0,1-0.447,1-1v-1c0-0.553-0.448-1-1-1s-1,0.447-1,1v1C29,9.432,29.448,9.879,30,9.879z"/><path d="M30,49.879c-0.552,0-1,0.447-1,1v1c0,0.553,0.448,1,1,1s1-0.447,1-1v-1C31,50.326,30.552,49.879,30,49.879z"/><path d="M52,28.879h-1c-0.552,0-1,0.447-1,1s0.448,1,1,1h1c0.552,0,1-0.447,1-1S52.552,28.879,52,28.879z"/><path d="M9,28.879H8c-0.552,0-1,0.447-1,1s0.448,1,1,1h1c0.552,0,1-0.447,1-1S9.552,28.879,9,28.879z"/><path d="M44.849,13.615l-0.707,0.707c-0.391,0.391-0.391,1.023,0,1.414c0.195,0.195,0.451,0.293,0.707,0.293 s0.512-0.098,0.707-0.293l0.707-0.707c0.391-0.391,0.391-1.023,0-1.414S45.24,13.225,44.849,13.615z"/><path d="M14.444,44.021l-0.707,0.707c-0.391,0.391-0.391,1.023,0,1.414c0.195,0.195,0.451,0.293,0.707,0.293 s0.512-0.098,0.707-0.293l0.707-0.707c0.391-0.391,0.391-1.023,0-1.414S14.834,43.631,14.444,44.021z"/><path d="M45.556,44.021c-0.391-0.391-1.023-0.391-1.414,0s-0.391,1.023,0,1.414l0.707,0.707c0.195,0.195,0.451,0.293,0.707,0.293 s0.512-0.098,0.707-0.293c0.391-0.391,0.391-1.023,0-1.414L45.556,44.021z"/><path d="M15.151,13.615c-0.391-0.391-1.023-0.391-1.414,0s-0.391,1.023,0,1.414l0.707,0.707c0.195,0.195,0.451,0.293,0.707,0.293 s0.512-0.098,0.707-0.293c0.391-0.391,0.391-1.023,0-1.414L15.151,13.615z"/></symbol><symbol id="user" viewBox="0 0 55 55"><title>user</title><path d="M55,27.5C55,12.337,42.663,0,27.5,0S0,12.337,0,27.5c0,8.009,3.444,15.228,8.926,20.258l-0.026,0.023l0.892,0.752 c0.058,0.049,0.121,0.089,0.179,0.137c0.474,0.393,0.965,0.766,1.465,1.127c0.162,0.117,0.324,0.234,0.489,0.348 c0.534,0.368,1.082,0.717,1.642,1.048c0.122,0.072,0.245,0.142,0.368,0.212c0.613,0.349,1.239,0.678,1.88,0.98 c0.047,0.022,0.095,0.042,0.142,0.064c2.089,0.971,4.319,1.684,6.651,2.105c0.061,0.011,0.122,0.022,0.184,0.033 c0.724,0.125,1.456,0.225,2.197,0.292c0.09,0.008,0.18,0.013,0.271,0.021C25.998,54.961,26.744,55,27.5,55 c0.749,0,1.488-0.039,2.222-0.098c0.093-0.008,0.186-0.013,0.279-0.021c0.735-0.067,1.461-0.164,2.178-0.287 c0.062-0.011,0.125-0.022,0.187-0.034c2.297-0.412,4.495-1.109,6.557-2.055c0.076-0.035,0.153-0.068,0.229-0.104 c0.617-0.29,1.22-0.603,1.811-0.936c0.147-0.083,0.293-0.167,0.439-0.253c0.538-0.317,1.067-0.648,1.581-1 c0.185-0.126,0.366-0.259,0.549-0.391c0.439-0.316,0.87-0.642,1.289-0.983c0.093-0.075,0.193-0.14,0.284-0.217l0.915-0.764 l-0.027-0.023C51.523,42.802,55,35.55,55,27.5z M2,27.5C2,13.439,13.439,2,27.5,2S53,13.439,53,27.5 c0,7.577-3.325,14.389-8.589,19.063c-0.294-0.203-0.59-0.385-0.893-0.537l-8.467-4.233c-0.76-0.38-1.232-1.144-1.232-1.993v-2.957 c0.196-0.242,0.403-0.516,0.617-0.817c1.096-1.548,1.975-3.27,2.616-5.123c1.267-0.602,2.085-1.864,2.085-3.289v-3.545 c0-0.867-0.318-1.708-0.887-2.369v-4.667c0.052-0.519,0.236-3.448-1.883-5.864C34.524,9.065,31.541,8,27.5,8 s-7.024,1.065-8.867,3.168c-2.119,2.416-1.935,5.345-1.883,5.864v4.667c-0.568,0.661-0.887,1.502-0.887,2.369v3.545 c0,1.101,0.494,2.128,1.34,2.821c0.81,3.173,2.477,5.575,3.093,6.389v2.894c0,0.816-0.445,1.566-1.162,1.958l-7.907,4.313 c-0.252,0.137-0.502,0.297-0.752,0.476C5.276,41.792,2,35.022,2,27.5z M42.459,48.132c-0.35,0.254-0.706,0.5-1.067,0.735 c-0.166,0.108-0.331,0.216-0.5,0.321c-0.472,0.292-0.952,0.57-1.442,0.83c-0.108,0.057-0.217,0.111-0.326,0.167 c-1.126,0.577-2.291,1.073-3.488,1.476c-0.042,0.014-0.084,0.029-0.127,0.043c-0.627,0.208-1.262,0.393-1.904,0.552 c-0.002,0-0.004,0.001-0.006,0.001c-0.648,0.16-1.304,0.293-1.964,0.402c-0.018,0.003-0.036,0.007-0.054,0.01 c-0.621,0.101-1.247,0.174-1.875,0.229c-0.111,0.01-0.222,0.017-0.334,0.025C28.751,52.97,28.127,53,27.5,53 c-0.634,0-1.266-0.031-1.895-0.078c-0.109-0.008-0.218-0.015-0.326-0.025c-0.634-0.056-1.265-0.131-1.89-0.233 c-0.028-0.005-0.056-0.01-0.084-0.015c-1.322-0.221-2.623-0.546-3.89-0.971c-0.039-0.013-0.079-0.027-0.118-0.04 c-0.629-0.214-1.251-0.451-1.862-0.713c-0.004-0.002-0.009-0.004-0.013-0.006c-0.578-0.249-1.145-0.525-1.705-0.816 c-0.073-0.038-0.147-0.074-0.219-0.113c-0.511-0.273-1.011-0.568-1.504-0.876c-0.146-0.092-0.291-0.185-0.435-0.279 c-0.454-0.297-0.902-0.606-1.338-0.933c-0.045-0.034-0.088-0.07-0.133-0.104c0.032-0.018,0.064-0.036,0.096-0.054l7.907-4.313 c1.36-0.742,2.205-2.165,2.205-3.714l-0.001-3.602l-0.23-0.278c-0.022-0.025-2.184-2.655-3.001-6.216l-0.091-0.396l-0.341-0.221 c-0.481-0.311-0.769-0.831-0.769-1.392v-3.545c0-0.465,0.197-0.898,0.557-1.223l0.33-0.298v-5.57l-0.009-0.131 c-0.003-0.024-0.298-2.429,1.396-4.36C21.583,10.837,24.061,10,27.5,10c3.426,0,5.896,0.83,7.346,2.466 c1.692,1.911,1.415,4.361,1.413,4.381l-0.009,5.701l0.33,0.298c0.359,0.324,0.557,0.758,0.557,1.223v3.545 c0,0.713-0.485,1.36-1.181,1.575l-0.497,0.153l-0.16,0.495c-0.59,1.833-1.43,3.526-2.496,5.032c-0.262,0.37-0.517,0.698-0.736,0.949 l-0.248,0.283V39.8c0,1.612,0.896,3.062,2.338,3.782l8.467,4.233c0.054,0.027,0.107,0.055,0.16,0.083 C42.677,47.979,42.567,48.054,42.459,48.132z"/></symbol><symbol id="placeholder" viewBox="0 0 477 477"><title>placeholder</title><path d="M238.4,0C133,0,47.2,85.8,47.2,191.2c0,12,1.1,24.1,3.4,35.9c0.1,0.7,0.5,2.8,1.3,6.4c2.9,12.9,7.2,25.6,12.8,37.7 c20.6,48.5,65.9,123,165.3,202.8c2.5,2,5.5,3,8.5,3s6-1,8.5-3c99.3-79.8,144.7-154.3,165.3-202.8c5.6-12.1,9.9-24.7,12.8-37.7 c0.8-3.6,1.2-5.7,1.3-6.4c2.2-11.8,3.4-23.9,3.4-35.9C429.6,85.8,343.8,0,238.4,0z M399.6,222.4c0,0.2-0.1,0.4-0.1,0.6 c-0.1,0.5-0.4,2-0.9,4.3c0,0.1,0,0.1,0,0.2c-2.5,11.2-6.2,22.1-11.1,32.6c-0.1,0.1-0.1,0.3-0.2,0.4 c-18.7,44.3-59.7,111.9-148.9,185.6c-89.2-73.7-130.2-141.3-148.9-185.6c-0.1-0.1-0.1-0.3-0.2-0.4c-4.8-10.4-8.5-21.4-11.1-32.6 c0-0.1,0-0.1,0-0.2c-0.6-2.3-0.8-3.8-0.9-4.3c0-0.2-0.1-0.4-0.1-0.7c-2-10.3-3-20.7-3-31.2c0-90.5,73.7-164.2,164.2-164.2 s164.2,73.7,164.2,164.2C402.6,201.7,401.6,212.2,399.6,222.4z"/><path d="M238.4,71.9c-66.9,0-121.4,54.5-121.4,121.4s54.5,121.4,121.4,121.4s121.4-54.5,121.4-121.4S305.3,71.9,238.4,71.9z M238.4,287.7c-52.1,0-94.4-42.4-94.4-94.4s42.4-94.4,94.4-94.4s94.4,42.4,94.4,94.4S290.5,287.7,238.4,287.7z"/></symbol><symbol id="phone-call" viewBox="0 0 473.806 473.806"><title>phone-call</title><path d="M374.456,293.506c-9.7-10.1-21.4-15.5-33.8-15.5c-12.3,0-24.1,5.3-34.2,15.4l-31.6,31.5c-2.6-1.4-5.2-2.7-7.7-4 c-3.6-1.8-7-3.5-9.9-5.3c-29.6-18.8-56.5-43.3-82.3-75c-12.5-15.8-20.9-29.1-27-42.6c8.2-7.5,15.8-15.3,23.2-22.8 c2.8-2.8,5.6-5.7,8.4-8.5c21-21,21-48.2,0-69.2l-27.3-27.3c-3.1-3.1-6.3-6.3-9.3-9.5c-6-6.2-12.3-12.6-18.8-18.6 c-9.7-9.6-21.3-14.7-33.5-14.7s-24,5.1-34,14.7c-0.1,0.1-0.1,0.1-0.2,0.2l-34,34.3c-12.8,12.8-20.1,28.4-21.7,46.5 c-2.4,29.2,6.2,56.4,12.8,74.2c16.2,43.7,40.4,84.2,76.5,127.6c43.8,52.3,96.5,93.6,156.7,122.7c23,10.9,53.7,23.8,88,26 c2.1,0.1,4.3,0.2,6.3,0.2c23.1,0,42.5-8.3,57.7-24.8c0.1-0.2,0.3-0.3,0.4-0.5c5.2-6.3,11.2-12,17.5-18.1c4.3-4.1,8.7-8.4,13-12.9 c9.9-10.3,15.1-22.3,15.1-34.6c0-12.4-5.3-24.3-15.4-34.3L374.456,293.506z M410.256,398.806 C410.156,398.806,410.156,398.906,410.256,398.806c-3.9,4.2-7.9,8-12.2,12.2c-6.5,6.2-13.1,12.7-19.3,20 c-10.1,10.8-22,15.9-37.6,15.9c-1.5,0-3.1,0-4.6-0.1c-29.7-1.9-57.3-13.5-78-23.4c-56.6-27.4-106.3-66.3-147.6-115.6 c-34.1-41.1-56.9-79.1-72-119.9c-9.3-24.9-12.7-44.3-11.2-62.6c1-11.7,5.5-21.4,13.8-29.7l34.1-34.1c4.9-4.6,10.1-7.1,15.2-7.1 c6.3,0,11.4,3.8,14.6,7c0.1,0.1,0.2,0.2,0.3,0.3c6.1,5.7,11.9,11.6,18,17.9c3.1,3.2,6.3,6.4,9.5,9.7l27.3,27.3 c10.6,10.6,10.6,20.4,0,31c-2.9,2.9-5.7,5.8-8.6,8.6c-8.4,8.6-16.4,16.6-25.1,24.4c-0.2,0.2-0.4,0.3-0.5,0.5 c-8.6,8.6-7,17-5.2,22.7c0.1,0.3,0.2,0.6,0.3,0.9c7.1,17.2,17.1,33.4,32.3,52.7l0.1,0.1c27.6,34,56.7,60.5,88.8,80.8 c4.1,2.6,8.3,4.7,12.3,6.7c3.6,1.8,7,3.5,9.9,5.3c0.4,0.2,0.8,0.5,1.2,0.7c3.4,1.7,6.6,2.5,9.9,2.5c8.3,0,13.5-5.2,15.2-6.9 l34.2-34.2c3.4-3.4,8.8-7.5,15.1-7.5c6.2,0,11.3,3.9,14.4,7.3c0.1,0.1,0.1,0.1,0.2,0.2l55.1,55.1 C420.456,377.706,420.456,388.206,410.256,398.806z"/><path d="M256.056,112.706c26.2,4.4,50,16.8,69,35.8s31.3,42.8,35.8,69c1.1,6.6,6.8,11.2,13.3,11.2c0.8,0,1.5-0.1,2.3-0.2 c7.4-1.2,12.3-8.2,11.1-15.6c-5.4-31.7-20.4-60.6-43.3-83.5s-51.8-37.9-83.5-43.3c-7.4-1.2-14.3,3.7-15.6,11 S248.656,111.506,256.056,112.706z"/><path d="M473.256,209.006c-8.9-52.2-33.5-99.7-71.3-137.5s-85.3-62.4-137.5-71.3c-7.3-1.3-14.2,3.7-15.5,11 c-1.2,7.4,3.7,14.3,11.1,15.6c46.6,7.9,89.1,30,122.9,63.7c33.8,33.8,55.8,76.3,63.7,122.9c1.1,6.6,6.8,11.2,13.3,11.2 c0.8,0,1.5-0.1,2.3-0.2C469.556,223.306,474.556,216.306,473.256,209.006z"/></symbol></svg>