<?xml version="1.0" encoding="iso-8859-1"?>
<!-- Generator: Adobe Illustrator 19.0.0, SVG Export Plug-In . SVG Version: 6.00 Build 0)  -->
<svg version="1.1" id="Capa_1" xmlns="http://www.w3.org/2000/svg" xmlns:xlink="http://www.w3.org/1999/xlink" x="0px" y="0px"
	 viewBox="0 0 160.624 160.624" style="enable-background:new 0 0 160.624 160.624;" xml:space="preserve">
<g>
	<path style="fill:#010002;" d="M80.241,160.624c-17.613,0-35.901-8.65-46.594-22.038c-8.153-10.21-11.175-22.291-8.517-34.008
		C31.412,76.874,72.407,4.96,74.144,1.916C74.805,0.758,76.023,0.037,77.352,0c1.344-0.015,2.584,0.631,3.297,1.752
		c1.945,3.03,47.633,74.535,54.687,102.744c2.866,11.465,0.074,23.375-7.856,33.54C116.766,151.758,98.225,160.624,80.241,160.624z
		 M77.634,11.22c-9.861,17.65-40.03,72.738-45.094,95.036c-2.74,12.073,2.324,21.667,7.047,27.585
		c9.304,11.65,25.261,19.179,40.653,19.179c15.482,0,32.062-7.9,41.247-19.67c4.567-5.851,9.4-15.289,6.467-27.013l0,0
		C122.283,83.639,88.535,28.617,77.634,11.22z"/>
</g>
<g>
</g>
<g>
</g>
<g>
</g>
<g>
</g>
<g>
</g>
<g>
</g>
<g>
</g>
<g>
</g>
<g>
</g>
<g>
</g>
<g>
</g>
<g>
</g>
<g>
</g>
<g>
</g>
<g>
</g>
</svg>
